ffmpeg started on 2026-01-13 at 12:24:11
Report written to "D:\Convert\FFMetrics\reports\psnr_report-6.txt"
Log level: 32
Command line:
ffmpeg -hide_banner -nostdin -r 24000/1001 -i "F:\\Convert\\files\\[DC] Make Heroine ga Oosugiru - 07_Telegram_HEVC(94).mkv" -r 24000/1001 -i "F:\\Convert\\files\\[DC] Make Heroine ga Oosugiru - 07_Telegram.mp4" -lavfi "[0:v]settb=AVTB,setpts=PTS-STARTPTS,format=pix_fmts=yuv420p10le,fps=24000/1001,scale=1920:1080:flags=lanczos:param0=3:out_range=limited:out_color_matrix=bt709:out_chroma_loc=left,setsar=1/1,setdar=(1920/1080)*(1/1),colorspace=format=yuv420p10:range=tv:primaries=bt709:trc=bt709:space=bt709:fast=0[main];[1:v]settb=AVTB,setpts=PTS-STARTPTS,format=pix_fmts=yuv420p,fps=24000/1001,scale=1920:1080:flags=lanczos:param0=3:out_range=limited:out_color_matrix=bt709:out_chroma_loc=left,setsar=1.000,setdar=1.778,colorspace=format=yuv420p:range=tv:primaries=bt709:trc=bt709:space=bt709:fast=0[ref];[main][ref]psnr=eof_action=endall:stats_file='D\\:/Convert/FFMetrics/logs/psnr_logfile-6.txt'" -f null -
Input #0, matroska,webm, from 'F:\Convert\files\[DC] Make Heroine ga Oosugiru - 07_Telegram_HEVC(94).mkv':
  Metadata:
    COMPATIBLE_BRANDS: isomiso2avc1mp41
    MAJOR_BRAND     : isom
    MINOR_VERSION   : 512
    ENCODER         : Lavf61.7.100
  Duration: 00:24:06.79, start: -0.021000, bitrate: 977 kb/s
  Stream #0:0: Video: hevc (Main 10), yuv420p10le(tv, bt709, progressive), 1920x1080 [SAR 1:1 DAR 16:9], 23.98 fps, 23.98 tbr, 1k tbn (default)
      Metadata:
        HANDLER_NAME    : VideoHandler
        VENDOR_ID       : [0][0][0][0]
        ENCODER         : Lavc61.19.100 libx265
        BPS             : 780132
        DURATION        : 00:24:06.569708333
        NUMBER_OF_FRAMES: 34683
        NUMBER_OF_BYTES : 141064444
        _STATISTICS_WRITING_APP: mkvpropedit v94.0 ('Initiate') 64-bit
        _STATISTICS_WRITING_DATE_UTC: 2026-01-12 09:45:03
        _STATISTICS_TAGS: BPS DURATION NUMBER_OF_FRAMES NUMBER_OF_BYTES
  Stream #0:1: Audio: aac (LC), 48000 Hz, stereo, fltp (default)
      Metadata:
        HANDLER_NAME    : SoundHandler
        VENDOR_ID       : [0][0][0][0]
        ENCODER         : Lavc61.19.100 aac
        BPS             : 193194
        DURATION        : 00:24:06.784000000
        NUMBER_OF_FRAMES: 67819
        NUMBER_OF_BYTES : 34938755
        _STATISTICS_WRITING_APP: mkvpropedit v94.0 ('Initiate') 64-bit
        _STATISTICS_WRITING_DATE_UTC: 2026-01-12 09:45:03
        _STATISTICS_TAGS: BPS DURATION NUMBER_OF_FRAMES NUMBER_OF_BYTES
Input #1, mov,mp4,m4a,3gp,3g2,mj2, from 'F:\Convert\files\[DC] Make Heroine ga Oosugiru - 07_Telegram.mp4':
  Metadata:
    major_brand     : isom
    minor_version   : 512
    compatible_brands: isomiso2avc1mp41
    encoder         : Lavf60.16.100
  Duration: 00:24:06.74, start: 0.000000, bitrate: 3764 kb/s
  Stream #1:0[0x1](und): Video: h264 (High) (avc1 / 0x31637661), yuv420p(tv, bt709, progressive), 1920x1080 [SAR 1:1 DAR 16:9], 3616 kb/s, 23.98 fps, 23.98 tbr, 24k tbn (default)
      Metadata:
        handler_name    : VideoHandler
        vendor_id       : [0][0][0][0]
        encoder         : Lavc60.31.102 h264_qsv
  Stream #1:1[0x2](und): Audio: aac (HE-AACv2) (mp4a / 0x6134706D), 48000 Hz, stereo, fltp, 144 kb/s (default)
      Metadata:
        handler_name    : SoundHandler
        vendor_id       : [0][0][0][0]
Stream mapping:
  Stream #0:0 (hevc) -> settb:default
  Stream #1:0 (h264) -> settb:default
  psnr:default -> Stream #0:0 (wrapped_avframe)
  Stream #0:1 -> #0:1 (aac (native) -> pcm_s16le (native))
Output #0, null, to 'pipe:':
  Metadata:
    COMPATIBLE_BRANDS: isomiso2avc1mp41
    MAJOR_BRAND     : isom
    MINOR_VERSION   : 512
    encoder         : Lavf61.7.100
  Stream #0:0: Video: wrapped_avframe, yuv420p10le(tv, bt709, progressive), 1920x1080 [SAR 1:1 DAR 16:9], q=2-31, 200 kb/s, 23.98 fps, 23.98 tbn
      Metadata:
        encoder         : Lavc61.19.100 wrapped_avframe
  Stream #0:1: Audio: pcm_s16le, 48000 Hz, stereo, s16, 1536 kb/s (default)
      Metadata:
        HANDLER_NAME    : SoundHandler
        VENDOR_ID       : [0][0][0][0]
        _STATISTICS_TAGS: BPS DURATION NUMBER_OF_FRAMES NUMBER_OF_BYTES
        BPS             : 193194
        DURATION        : 00:24:06.784000000
        NUMBER_OF_FRAMES: 67819
        NUMBER_OF_BYTES : 34938755
        _STATISTICS_WRITING_APP: mkvpropedit v94.0 ('Initiate') 64-bit
        _STATISTICS_WRITING_DATE_UTC: 2026-01-12 09:45:03
        encoder         : Lavc61.19.100 pcm_s16le
frame=  131 fps=0.0 q=-0.0 size=N/A time=00:00:05.46 bitrate=N/A speed=10.8x    frame=  319 fps=309 q=-0.0 size=N/A time=00:00:13.30 bitrate=N/A speed=12.9x    frame=  491 fps=315 q=-0.0 size=N/A time=00:00:20.47 bitrate=N/A speed=13.1x    frame=  674 fps=325 q=-0.0 size=N/A time=00:00:28.11 bitrate=N/A speed=13.6x    frame=  877 fps=340 q=-0.0 size=N/A time=00:00:36.57 bitrate=N/A speed=14.2x    frame= 1013 fps=326 q=-0.0 size=N/A time=00:00:42.25 bitrate=N/A speed=13.6x    frame= 1155 fps=319 q=-0.0 size=N/A time=00:00:48.17 bitrate=N/A speed=13.3x    frame= 1310 fps=317 q=-0.0 size=N/A time=00:00:54.63 bitrate=N/A speed=13.2x    frame= 1484 fps=319 q=-0.0 size=N/A time=00:01:01.89 bitrate=N/A speed=13.3x    frame= 1626 fps=315 q=-0.0 size=N/A time=00:01:07.81 bitrate=N/A speed=13.1x    frame= 1793 fps=315 q=-0.0 size=N/A time=00:01:14.78 bitrate=N/A speed=13.2x    frame= 1956 fps=316 q=-0.0 size=N/A time=00:01:21.58 bitrate=N/A speed=13.2x    frame= 2076 fps=310 q=-0.0 size=N/A time=00:01:26.58 bitrate=N/A speed=12.9x    frame= 2212 fps=306 q=-0.0 size=N/A time=00:01:32.25 bitrate=N/A speed=12.8x    frame= 2362 fps=305 q=-0.0 size=N/A time=00:01:38.51 bitrate=N/A speed=12.7x    frame= 2490 fps=302 q=-0.0 size=N/A time=00:01:43.85 bitrate=N/A speed=12.6x    frame= 2650 fps=302 q=-0.0 size=N/A time=00:01:50.52 bitrate=N/A speed=12.6x    frame= 2821 fps=304 q=-0.0 size=N/A time=00:01:57.65 bitrate=N/A speed=12.7x    frame= 2991 fps=305 q=-0.0 size=N/A time=00:02:04.74 bitrate=N/A speed=12.7x    frame= 3191 fps=309 q=-0.0 size=N/A time=00:02:13.09 bitrate=N/A speed=12.9x    frame= 3387 fps=313 q=-0.0 size=N/A time=00:02:21.26 bitrate=N/A speed=  13x    frame= 3577 fps=315 q=-0.0 size=N/A time=00:02:29.19 bitrate=N/A speed=13.1x    frame= 3783 fps=319 q=-0.0 size=N/A time=00:02:37.78 bitrate=N/A speed=13.3x    frame= 3964 fps=320 q=-0.0 size=N/A time=00:02:45.33 bitrate=N/A speed=13.4x    frame= 4158 fps=322 q=-0.0 size=N/A time=00:02:53.42 bitrate=N/A speed=13.4x    frame= 4352 fps=324 q=-0.0 size=N/A time=00:03:01.51 bitrate=N/A speed=13.5x    frame= 4540 fps=326 q=-0.0 size=N/A time=00:03:09.35 bitrate=N/A speed=13.6x    frame= 4728 fps=327 q=-0.0 size=N/A time=00:03:17.19 bitrate=N/A speed=13.7x    frame= 4917 fps=329 q=-0.0 size=N/A time=00:03:25.07 bitrate=N/A speed=13.7x    frame= 5108 fps=330 q=-0.0 size=N/A time=00:03:33.04 bitrate=N/A speed=13.8x    frame= 5298 fps=331 q=-0.0 size=N/A time=00:03:40.97 bitrate=N/A speed=13.8x    frame= 5482 fps=332 q=-0.0 size=N/A time=00:03:48.64 bitrate=N/A speed=13.9x    frame= 5674 fps=333 q=-0.0 size=N/A time=00:03:56.65 bitrate=N/A speed=13.9x    frame= 5859 fps=334 q=-0.0 size=N/A time=00:04:04.36 bitrate=N/A speed=13.9x    frame= 6036 fps=334 q=-0.0 size=N/A time=00:04:11.75 bitrate=N/A speed=13.9x    frame= 6221 fps=335 q=-0.0 size=N/A time=00:04:19.46 bitrate=N/A speed=  14x    frame= 6418 fps=336 q=-0.0 size=N/A time=00:04:27.68 bitrate=N/A speed=  14x    frame= 6614 fps=337 q=-0.0 size=N/A time=00:04:35.85 bitrate=N/A speed=14.1x    frame= 6802 fps=338 q=-0.0 size=N/A time=00:04:43.70 bitrate=N/A speed=14.1x    frame= 6988 fps=338 q=-0.0 size=N/A time=00:04:51.45 bitrate=N/A speed=14.1x    frame= 7177 fps=339 q=-0.0 size=N/A time=00:04:59.34 bitrate=N/A speed=14.1x    frame= 7371 fps=340 q=-0.0 size=N/A time=00:05:07.43 bitrate=N/A speed=14.2x    frame= 7543 fps=340 q=-0.0 size=N/A time=00:05:14.60 bitrate=N/A speed=14.2x    frame= 7723 fps=340 q=-0.0 size=N/A time=00:05:22.11 bitrate=N/A speed=14.2x    frame= 7897 fps=340 q=-0.0 size=N/A time=00:05:29.37 bitrate=N/A speed=14.2x    frame= 8090 fps=341 q=-0.0 size=N/A time=00:05:37.42 bitrate=N/A speed=14.2x    frame= 8276 fps=341 q=-0.0 size=N/A time=00:05:45.17 bitrate=N/A speed=14.2x    frame= 8469 fps=342 q=-0.0 size=N/A time=00:05:53.22 bitrate=N/A speed=14.3x    frame= 8651 fps=342 q=-0.0 size=N/A time=00:06:00.81 bitrate=N/A speed=14.3x    frame= 8838 fps=343 q=-0.0 size=N/A time=00:06:08.61 bitrate=N/A speed=14.3x    frame= 9017 fps=343 q=-0.0 size=N/A time=00:06:16.08 bitrate=N/A speed=14.3x    frame= 9215 fps=343 q=-0.0 size=N/A time=00:06:24.34 bitrate=N/A speed=14.3x    frame= 9407 fps=344 q=-0.0 size=N/A time=00:06:32.35 bitrate=N/A speed=14.3x    frame= 9592 fps=344 q=-0.0 size=N/A time=00:06:40.06 bitrate=N/A speed=14.3x    frame= 9783 fps=344 q=-0.0 size=N/A time=00:06:48.03 bitrate=N/A speed=14.4x    frame= 9975 fps=345 q=-0.0 size=N/A time=00:06:56.04 bitrate=N/A speed=14.4x    frame=10138 fps=344 q=-0.0 size=N/A time=00:07:02.83 bitrate=N/A speed=14.4x    frame=10329 fps=345 q=-0.0 size=N/A time=00:07:10.80 bitrate=N/A speed=14.4x    frame=10516 fps=345 q=-0.0 size=N/A time=00:07:18.60 bitrate=N/A speed=14.4x    frame=10703 fps=345 q=-0.0 size=N/A time=00:07:26.40 bitrate=N/A speed=14.4x    frame=10894 fps=346 q=-0.0 size=N/A time=00:07:34.37 bitrate=N/A speed=14.4x    frame=11071 fps=346 q=-0.0 size=N/A time=00:07:41.75 bitrate=N/A speed=14.4x    frame=11251 fps=346 q=-0.0 size=N/A time=00:07:49.26 bitrate=N/A speed=14.4x    frame=11436 fps=346 q=-0.0 size=N/A time=00:07:56.97 bitrate=N/A speed=14.4x    frame=11631 fps=346 q=-0.0 size=N/A time=00:08:05.10 bitrate=N/A speed=14.4x    frame=11821 fps=347 q=-0.0 size=N/A time=00:08:13.03 bitrate=N/A speed=14.5x    frame=12008 fps=347 q=-0.0 size=N/A time=00:08:20.83 bitrate=N/A speed=14.5x    frame=12193 fps=347 q=-0.0 size=N/A time=00:08:28.54 bitrate=N/A speed=14.5x    frame=12392 fps=348 q=-0.0 size=N/A time=00:08:36.84 bitrate=N/A speed=14.5x    frame=12573 fps=348 q=-0.0 size=N/A time=00:08:44.39 bitrate=N/A speed=14.5x    frame=12759 fps=348 q=-0.0 size=N/A time=00:08:52.15 bitrate=N/A speed=14.5x    frame=12952 fps=348 q=-0.0 size=N/A time=00:09:00.20 bitrate=N/A speed=14.5x    frame=13133 fps=348 q=-0.0 size=N/A time=00:09:07.75 bitrate=N/A speed=14.5x    frame=13301 fps=348 q=-0.0 size=N/A time=00:09:14.76 bitrate=N/A speed=14.5x    frame=13467 fps=348 q=-0.0 size=N/A time=00:09:21.68 bitrate=N/A speed=14.5x    frame=13652 fps=348 q=-0.0 size=N/A time=00:09:29.40 bitrate=N/A speed=14.5x    frame=13846 fps=348 q=-0.0 size=N/A time=00:09:37.49 bitrate=N/A speed=14.5x    frame=14030 fps=348 q=-0.0 size=N/A time=00:09:45.16 bitrate=N/A speed=14.5x    frame=14211 fps=348 q=-0.0 size=N/A time=00:09:52.71 bitrate=N/A speed=14.5x    frame=14400 fps=348 q=-0.0 size=N/A time=00:10:00.60 bitrate=N/A speed=14.5x    frame=14587 fps=349 q=-0.0 size=N/A time=00:10:08.39 bitrate=N/A speed=14.5x    frame=14783 fps=349 q=-0.0 size=N/A time=00:10:16.57 bitrate=N/A speed=14.5x    frame=14973 fps=349 q=-0.0 size=N/A time=00:10:24.49 bitrate=N/A speed=14.6x    frame=15133 fps=349 q=-0.0 size=N/A time=00:10:31.17 bitrate=N/A speed=14.5x    frame=15326 fps=349 q=-0.0 size=N/A time=00:10:39.22 bitrate=N/A speed=14.5x    frame=15520 fps=349 q=-0.0 size=N/A time=00:10:47.31 bitrate=N/A speed=14.6x    frame=15712 fps=349 q=-0.0 size=N/A time=00:10:55.32 bitrate=N/A speed=14.6x    frame=15894 fps=349 q=-0.0 size=N/A time=00:11:02.91 bitrate=N/A speed=14.6x    frame=16088 fps=350 q=-0.0 size=N/A time=00:11:11.00 bitrate=N/A speed=14.6x    frame=16287 fps=350 q=-0.0 size=N/A time=00:11:19.30 bitrate=N/A speed=14.6x    frame=16480 fps=350 q=-0.0 size=N/A time=00:11:27.35 bitrate=N/A speed=14.6x    frame=16669 fps=351 q=-0.0 size=N/A time=00:11:35.23 bitrate=N/A speed=14.6x    frame=16862 fps=351 q=-0.0 size=N/A time=00:11:43.28 bitrate=N/A speed=14.6x    frame=17049 fps=351 q=-0.0 size=N/A time=00:11:51.08 bitrate=N/A speed=14.6x    frame=17235 fps=351 q=-0.0 size=N/A time=00:11:58.84 bitrate=N/A speed=14.6x    frame=17430 fps=351 q=-0.0 size=N/A time=00:12:06.97 bitrate=N/A speed=14.7x    frame=17612 fps=351 q=-0.0 size=N/A time=00:12:14.56 bitrate=N/A speed=14.7x    frame=17807 fps=352 q=-0.0 size=N/A time=00:12:22.70 bitrate=N/A speed=14.7x    frame=17998 fps=352 q=-0.0 size=N/A time=00:12:30.66 bitrate=N/A speed=14.7x    frame=18191 fps=352 q=-0.0 size=N/A time=00:12:38.71 bitrate=N/A speed=14.7x    frame=18373 fps=352 q=-0.0 size=N/A time=00:12:46.30 bitrate=N/A speed=14.7x    frame=18575 fps=352 q=-0.0 size=N/A time=00:12:54.73 bitrate=N/A speed=14.7x    frame=18762 fps=352 q=-0.0 size=N/A time=00:13:02.53 bitrate=N/A speed=14.7x    frame=18949 fps=353 q=-0.0 size=N/A time=00:13:10.33 bitrate=N/A speed=14.7x    frame=19121 fps=352 q=-0.0 size=N/A time=00:13:17.50 bitrate=N/A speed=14.7x    frame=19317 fps=353 q=-0.0 size=N/A time=00:13:25.67 bitrate=N/A speed=14.7x    frame=19510 fps=353 q=-0.0 size=N/A time=00:13:33.72 bitrate=N/A speed=14.7x    frame=19696 fps=353 q=-0.0 size=N/A time=00:13:41.48 bitrate=N/A speed=14.7x    frame=19889 fps=353 q=-0.0 size=N/A time=00:13:49.53 bitrate=N/A speed=14.7x    frame=20087 fps=353 q=-0.0 size=N/A time=00:13:57.79 bitrate=N/A speed=14.7x    frame=20270 fps=353 q=-0.0 size=N/A time=00:14:05.42 bitrate=N/A speed=14.7x    frame=20456 fps=354 q=-0.0 size=N/A time=00:14:13.18 bitrate=N/A speed=14.7x    frame=20644 fps=354 q=-0.0 size=N/A time=00:14:21.02 bitrate=N/A speed=14.7x    frame=20837 fps=354 q=-0.0 size=N/A time=00:14:29.07 bitrate=N/A speed=14.8x    frame=21030 fps=354 q=-0.0 size=N/A time=00:14:37.12 bitrate=N/A speed=14.8x    frame=21232 fps=354 q=-0.0 size=N/A time=00:14:45.55 bitrate=N/A speed=14.8x    frame=21427 fps=354 q=-0.0 size=N/A time=00:14:53.68 bitrate=N/A speed=14.8x    frame=21625 fps=355 q=-0.0 size=N/A time=00:15:01.94 bitrate=N/A speed=14.8x    frame=21821 fps=355 q=-0.0 size=N/A time=00:15:10.11 bitrate=N/A speed=14.8x    frame=22004 fps=355 q=-0.0 size=N/A time=00:15:17.75 bitrate=N/A speed=14.8x    frame=22191 fps=355 q=-0.0 size=N/A time=00:15:25.54 bitrate=N/A speed=14.8x    frame=22393 fps=355 q=-0.0 size=N/A time=00:15:33.97 bitrate=N/A speed=14.8x    frame=22574 fps=355 q=-0.0 size=N/A time=00:15:41.52 bitrate=N/A speed=14.8x    frame=22763 fps=355 q=-0.0 size=N/A time=00:15:49.40 bitrate=N/A speed=14.8x    frame=22949 fps=355 q=-0.0 size=N/A time=00:15:57.16 bitrate=N/A speed=14.8x    frame=23142 fps=355 q=-0.0 size=N/A time=00:16:05.21 bitrate=N/A speed=14.8x    frame=23316 fps=355 q=-0.0 size=N/A time=00:16:12.47 bitrate=N/A speed=14.8x    frame=23508 fps=355 q=-0.0 size=N/A time=00:16:20.47 bitrate=N/A speed=14.8x    frame=23694 fps=356 q=-0.0 size=N/A time=00:16:28.23 bitrate=N/A speed=14.8x    frame=23891 fps=356 q=-0.0 size=N/A time=00:16:36.45 bitrate=N/A speed=14.8x    frame=24091 fps=356 q=-0.0 size=N/A time=00:16:44.79 bitrate=N/A speed=14.8x    frame=24271 fps=356 q=-0.0 size=N/A time=00:16:52.30 bitrate=N/A speed=14.8x    frame=24460 fps=356 q=-0.0 size=N/A time=00:17:00.18 bitrate=N/A speed=14.8x    frame=24651 fps=356 q=-0.0 size=N/A time=00:17:08.15 bitrate=N/A speed=14.9x    frame=24846 fps=356 q=-0.0 size=N/A time=00:17:16.28 bitrate=N/A speed=14.9x    frame=25044 fps=356 q=-0.0 size=N/A time=00:17:24.54 bitrate=N/A speed=14.9x    frame=25226 fps=356 q=-0.0 size=N/A time=00:17:32.13 bitrate=N/A speed=14.9x    frame=25419 fps=357 q=-0.0 size=N/A time=00:17:40.18 bitrate=N/A speed=14.9x    frame=25616 fps=357 q=-0.0 size=N/A time=00:17:48.40 bitrate=N/A speed=14.9x    frame=25808 fps=357 q=-0.0 size=N/A time=00:17:56.40 bitrate=N/A speed=14.9x    frame=25991 fps=357 q=-0.0 size=N/A time=00:18:04.04 bitrate=N/A speed=14.9x    frame=26177 fps=357 q=-0.0 size=N/A time=00:18:11.79 bitrate=N/A speed=14.9x    frame=26367 fps=357 q=-0.0 size=N/A time=00:18:19.72 bitrate=N/A speed=14.9x    frame=26553 fps=357 q=-0.0 size=N/A time=00:18:27.48 bitrate=N/A speed=14.9x    frame=26734 fps=357 q=-0.0 size=N/A time=00:18:35.03 bitrate=N/A speed=14.9x    frame=26921 fps=357 q=-0.0 size=N/A time=00:18:42.83 bitrate=N/A speed=14.9x    frame=27085 fps=357 q=-0.0 size=N/A time=00:18:49.67 bitrate=N/A speed=14.9x    frame=27257 fps=357 q=-0.0 size=N/A time=00:18:56.84 bitrate=N/A speed=14.9x    frame=27433 fps=356 q=-0.0 size=N/A time=00:19:04.18 bitrate=N/A speed=14.9x    frame=27613 fps=356 q=-0.0 size=N/A time=00:19:11.69 bitrate=N/A speed=14.9x    frame=27799 fps=356 q=-0.0 size=N/A time=00:19:19.44 bitrate=N/A speed=14.9x    frame=27977 fps=356 q=-0.0 size=N/A time=00:19:26.87 bitrate=N/A speed=14.9x    frame=28155 fps=356 q=-0.0 size=N/A time=00:19:34.29 bitrate=N/A speed=14.9x    frame=28337 fps=356 q=-0.0 size=N/A time=00:19:41.88 bitrate=N/A speed=14.9x    frame=28530 fps=356 q=-0.0 size=N/A time=00:19:49.93 bitrate=N/A speed=14.9x    frame=28712 fps=356 q=-0.0 size=N/A time=00:19:57.52 bitrate=N/A speed=14.9x    frame=28876 fps=356 q=-0.0 size=N/A time=00:20:04.36 bitrate=N/A speed=14.9x    frame=29022 fps=356 q=-0.0 size=N/A time=00:20:10.45 bitrate=N/A speed=14.8x    frame=29186 fps=355 q=-0.0 size=N/A time=00:20:17.29 bitrate=N/A speed=14.8x    frame=29358 fps=355 q=-0.0 size=N/A time=00:20:24.47 bitrate=N/A speed=14.8x    frame=29505 fps=355 q=-0.0 size=N/A time=00:20:30.60 bitrate=N/A speed=14.8x    frame=29670 fps=355 q=-0.0 size=N/A time=00:20:37.48 bitrate=N/A speed=14.8x    frame=29830 fps=354 q=-0.0 size=N/A time=00:20:44.15 bitrate=N/A speed=14.8x    frame=29990 fps=354 q=-0.0 size=N/A time=00:20:50.83 bitrate=N/A speed=14.8x    frame=30160 fps=354 q=-0.0 size=N/A time=00:20:57.92 bitrate=N/A speed=14.8x    frame=30345 fps=354 q=-0.0 size=N/A time=00:21:05.63 bitrate=N/A speed=14.8x    frame=30533 fps=354 q=-0.0 size=N/A time=00:21:13.48 bitrate=N/A speed=14.8x    frame=30725 fps=354 q=-0.0 size=N/A time=00:21:21.48 bitrate=N/A speed=14.8x    frame=30903 fps=354 q=-0.0 size=N/A time=00:21:28.91 bitrate=N/A speed=14.8x    frame=31092 fps=354 q=-0.0 size=N/A time=00:21:36.79 bitrate=N/A speed=14.8x    frame=31277 fps=354 q=-0.0 size=N/A time=00:21:44.51 bitrate=N/A speed=14.8x    frame=31452 fps=354 q=-0.0 size=N/A time=00:21:51.81 bitrate=N/A speed=14.8x    frame=31593 fps=354 q=-0.0 size=N/A time=00:21:57.69 bitrate=N/A speed=14.7x    frame=31765 fps=354 q=-0.0 size=N/A time=00:22:04.86 bitrate=N/A speed=14.7x    frame=31936 fps=353 q=-0.0 size=N/A time=00:22:11.99 bitrate=N/A speed=14.7x    frame=32124 fps=353 q=-0.0 size=N/A time=00:22:19.83 bitrate=N/A speed=14.7x    frame=32308 fps=353 q=-0.0 size=N/A time=00:22:27.51 bitrate=N/A speed=14.7x    frame=32493 fps=354 q=-0.0 size=N/A time=00:22:35.22 bitrate=N/A speed=14.7x    frame=32663 fps=353 q=-0.0 size=N/A time=00:22:42.31 bitrate=N/A speed=14.7x    frame=32827 fps=353 q=-0.0 size=N/A time=00:22:49.15 bitrate=N/A speed=14.7x    frame=32995 fps=353 q=-0.0 size=N/A time=00:22:56.16 bitrate=N/A speed=14.7x    frame=33169 fps=353 q=-0.0 size=N/A time=00:23:03.42 bitrate=N/A speed=14.7x    frame=33343 fps=353 q=-0.0 size=N/A time=00:23:10.68 bitrate=N/A speed=14.7x    frame=33504 fps=353 q=-0.0 size=N/A time=00:23:17.39 bitrate=N/A speed=14.7x    frame=33655 fps=352 q=-0.0 size=N/A time=00:23:23.69 bitrate=N/A speed=14.7x    frame=33792 fps=352 q=-0.0 size=N/A time=00:23:29.40 bitrate=N/A speed=14.7x    frame=33931 fps=351 q=-0.0 size=N/A time=00:23:35.20 bitrate=N/A speed=14.7x    frame=34097 fps=351 q=-0.0 size=N/A time=00:23:42.12 bitrate=N/A speed=14.6x    frame=34259 fps=351 q=-0.0 size=N/A time=00:23:48.88 bitrate=N/A speed=14.6x    frame=34387 fps=350 q=-0.0 size=N/A time=00:23:54.22 bitrate=N/A speed=14.6x    frame=34558 fps=350 q=-0.0 size=N/A time=00:24:01.35 bitrate=N/A speed=14.6x    [Parsed_psnr_16 @ 000002116cf7ed00] PSNR y:48.959781 u:50.342455 v:50.392647 average:49.380273 min:38.025288 max:inf
[out#0/null @ 000002115faf8a00] video:14903KiB audio:271276KiB subtitle:0KiB other streams:0KiB global headers:0KiB muxing overhead: unknown
frame=34683 fps=350 q=-0.0 Lsize=N/A time=00:24:06.57 bitrate=N/A speed=14.6x    
